<?xml version="1.0" encoding="UTF-8" standalone="no"?>
<!-- Created with Inkscape (http://www.inkscape.org/) -->

<svg
   xmlns:dc="http://purl.org/dc/elements/1.1/"
   xmlns:cc="http://creativecommons.org/ns#"
   xmlns:rdf="http://www.w3.org/1999/02/22-rdf-syntax-ns#"
   xmlns:svg="http://www.w3.org/2000/svg"
   xmlns="http://www.w3.org/2000/svg"
   xmlns:sodipodi="http://sodipodi.sourceforge.net/DTD/sodipodi-0.dtd"
   xmlns:inkscape="http://www.inkscape.org/namespaces/inkscape"
   width="224.92863"
   height="228.884"
   id="svg4025"
   version="1.1"
   inkscape:version="0.48.4 r9939"
   sodipodi:docname="broom.svg">
  <defs
     id="defs4027" />
  <sodipodi:namedview
     id="base"
     pagecolor="#ffffff"
     bordercolor="#666666"
     borderopacity="1.0"
     inkscape:pageopacity="0"
     inkscape:pageshadow="2"
     inkscape:zoom="1.979899"
     inkscape:cx="175.4743"
     inkscape:cy="113.99893"
     inkscape:document-units="px"
     inkscape:current-layer="layer1"
     showgrid="false"
     fit-margin-top="0"
     fit-margin-left="0"
     fit-margin-right="0"
     fit-margin-bottom="0"
     inkscape:window-width="1366"
     inkscape:window-height="713"
     inkscape:window-x="0"
     inkscape:window-y="27"
     inkscape:window-maximized="1" />
  <metadata
     id="metadata4030">
    <rdf:RDF>
      <cc:Work
         rdf:about="">
        <dc:format>image/svg+xml</dc:format>
        <dc:type
           rdf:resource="http://purl.org/dc/dcmitype/StillImage" />
        <dc:title></dc:title>
      </cc:Work>
    </rdf:RDF>
  </metadata>
  <g
     inkscape:label="Layer 1"
     inkscape:groupmode="layer"
     id="layer1"
     transform="translate(-6.177,-2.49698)">
    <path
       transform="translate(74.80997,-968.35857)"
       sodipodi:type="arc"
       style="fill:#ffffff;fill-opacity:0;stroke:none;stroke-linecap:round;stroke-linejoin:bevel;stroke-opacity:1;opacity:1;fill-rule:evenodd"
       id="path4749"
       sodipodi:cx="150.74632"
       sodipodi:cy="1182.2047"
       sodipodi:rx="1.281631"
       sodipodi:ry="1.1490486"
       d="m 151.5373,1181.3006 c 0.55694,0.3917 0.6543,1.1139 0.21745,1.6133 -0.43684,0.4993 -1.24246,0.5866 -1.7994,0.1949 -0.55695,-0.3916 -0.6543,-1.1139 -0.21746,-1.6132 0.43544,-0.4978 1.23768,-0.5863 1.79481,-0.1982"
       sodipodi:start="5.3775223"
       sodipodi:end="11.656153"
       sodipodi:open="true" />
    <path
       id="path3885-2-17"
       style="fill:#ffffff;fill-opacity:1;stroke:none;fill-rule:evenodd"
       d="m 100.29433,57.43544 c 1.90535,2.2528 3.68188,5.341 4.11025,8.4411 0.46841,3.3898 0.19821,8.1425 -1.82299,10.1029 0,0 0.49745,-2.1808 0.32415,-4.3615 -0.19599,-2.4664 -1.23726,-5.5719 -1.45382,-6.1666 -0.68272,-1.5661 -1.48988,-3.0812 -2.8357,-3.7993 -2.35224,0.6618 -4.04239,2.1772 -5.27726,3.9355 0.68587,-3.2591 3.40347,-6.2869 6.44659,-7.8454 z m 28.53074,-12.0305 c 4.22972,1.1606 8.99283,3.4157 12.09535,6.7572 3.39249,3.6537 7.00043,9.5134 6.12229,13.4489 0,0 -1.19273,-2.9855 -3.21654,-5.4379 -2.28882,-2.7734 -6.15536,-5.634 -6.91695,-6.168 -2.14519,-1.3174 -4.40217,-2.4749 -6.66554,-2.2578 -2.36545,2.6566 -3.2025,5.8006 -3.27398,8.8708 -1.8539,-4.4164 -0.99829,-10.1734 1.47931,-14.4444 z m 50.30512,-10.0423 c -3.79646,0.6581 -8.17383,2.3194 -11.22689,5.2184 -3.33843,3.1701 -7.10158,8.4571 -6.76349,12.3735 0,0 1.35706,-2.7653 3.37798,-4.9211 2.28559,-2.438 5.94997,-4.7859 6.66861,-5.2197 2.00397,-1.0409 4.08778,-1.9144 6.02893,-1.4532 1.76695,2.8398 2.15471,5.9836 1.88591,8.9709 2.0851,-4.0805 1.96281,-9.7619 0.27257,-14.1811 z m -95.15995,126.6606 c 3.30725,-0.8898 7.04383,-2.6617 9.50201,-5.3363 2.68795,-2.9245 5.5722,-7.6379 4.93977,-10.8444 0,0 -0.9671,2.4095 -2.57414,4.3757 -1.81748,2.2235 -4.86407,4.4981 -5.46381,4.9223 -1.68679,1.0429 -3.45853,1.9549 -5.21736,1.7503 -1.80669,-2.1866 -2.41743,-4.7498 -2.43324,-7.2437 -1.50027,3.563 -0.90898,8.2483 0.96401,11.7472 z m 90.58164,-32.6346 c 2.18882,2.3124 4.28925,5.5325 4.9378,8.8469 0.70919,3.6241 0.70475,8.7614 -1.35475,10.9954 0,0 0.40442,-2.3797 0.0862,-4.7189 -0.35997,-2.6455 -1.66919,-5.9287 -1.93839,-6.5563 -0.83007,-1.6464 -1.79115,-3.2301 -3.28454,-3.9228 -2.49453,0.855 -4.22417,2.5898 -5.44865,4.5587 0.54242,-3.5529 3.28789,-6.979 6.47269,-8.8421 z m -45.72258,25.4648 c 3.20396,3.3365 7.73134,6.6074 12.49593,7.7781 5.20993,1.28 12.66484,1.6294 16.04946,-1.2045 0,0 -3.48125,0.4221 -6.85362,-0.2018 -3.81404,-0.7055 -8.48783,-2.8327 -9.37995,-3.2668 -2.3315,-1.3186 -4.5631,-2.823 -5.46476,-5.0379 1.41357,-3.5606 4.05065,-5.9504 6.99259,-7.5909 -5.19337,0.5409 -10.35517,4.2878 -13.27911,8.7801 z m -90.37516,-12.0499 c 4.08132,2.8378 9.54319,5.3267 14.81083,5.5525 5.75998,0.2467 13.68846,-0.9616 16.65525,-4.6632 0,0 -3.57863,1.1809 -7.26376,1.2368 -4.16774,0.063 -9.54199,-1.1898 -10.57375,-1.4584 -2.73535,-0.8962 -5.40476,-2.0093 -6.82318,-4.1524 0.73633,-4.0504 3.00941,-7.1261 5.76216,-9.4766 -5.3574,1.6682 -10.00359,6.7075 -12.13422,12.0592 z m 21.92032,-56.0735 c 0.91737,4.7235 2.9666,10.124 6.30812,13.802 3.65382,4.0219 9.65528,8.4683 13.94087,7.8455 0,0 -3.10776,-1.5598 -5.57967,-3.9824 -2.79567,-2.7399 -5.56288,-7.212 -6.07645,-8.0904 -1.24618,-2.458 -2.31261,-5.0246 -1.90516,-7.4804 3.0297,-2.3584 6.46359,-3.0041 9.75953,-2.8192 -4.58998,-2.4052 -10.82582,-1.9631 -15.59442,0.3795 z m 32.46142,16.3068 c 1.76206,5.6205 5.07024,11.9166 9.83949,15.9523 5.21498,4.4129 13.51743,9.0371 18.98315,7.7244 0,0 -4.20875,-1.4921 -7.70047,-4.1151 -3.94904,-2.9665 -8.07246,-8.0415 -8.84363,-9.0422 -1.91106,-2.8251 -3.60294,-5.8054 -3.37544,-8.8422 3.63017,-3.2587 7.99177,-4.4888 12.27625,-4.6917 -6.22844,-2.327 -14.23803,-0.9808 -20.11867,2.4843 z m 62.18371,-19.3606 c 0,0 -2.25828,3.4824 -3.08287,5.4952 -1.15688,2.824 -1.90735,5.0005 -2.26148,8.0263 -0.28436,2.4296 -0.30248,6.3618 0.23927,9.0238 0.62194,3.0559 3.47304,7.9745 3.47304,7.9745 0,0 -0.81833,-6.9303 -0.53033,-10.3843 0.18492,-2.2178 0.79551,-4.3892 1.4401,-6.5193 0.43136,-1.4254 0.91797,-2.8499 1.61688,-4.165 0.63053,-1.1864 2.29809,-3.3114 2.29809,-3.3114 0,0 2.80217,1.844 4.08103,2.9231 1.11267,0.9389 2.07669,2.041 3.10432,3.0722 0.78372,0.7865 2.33471,2.3757 2.33471,2.3757 0,0 -1.27432,-3.5039 -2.21599,-5.1006 -0.5081,-0.8615 -1.19762,-1.6031 -1.82986,-2.3781 -0.55106,-0.6755 -0.82001,-1.0992 -1.71012,-1.9788 -0.8901,-0.8796 -2.50309,-2.3995 -3.6757,-3.249 -1.1726,-0.8495 -3.28109,-1.8043 -3.28109,-1.8043 z m -142.08862,53.0021 c -1.14404,-1.3732 -1.85781,-2.9717 -2.83766,-4.4241 -1.02997,-1.5266 -3.41631,-4.4628 -3.41631,-4.4628 0,0 3.56678,-2.5721 5.5322,-3.5341 1.204,-0.5893 2.6258,-1.0173 4.00967,-1.1715 2.67088,-0.2977 8.04664,0.5016 8.04664,0.5016 0,0 -2.49641,-2.0415 -3.44085,-3.3274 -0.62066,-0.8451 -1.40987,-2.812 -1.40987,-2.812 0,0 2.47901,-1.7266 4.18032,-2.1293 1.78508,-0.4226 3.63778,-0.6706 5.59137,-0.4352 1.21748,0.1468 2.71521,0.5686 3.76787,1.1976 0.75783,0.4529 2.13815,2.0926 2.13815,2.0926 0,0 1.08944,0.082 1.5176,-0.1316 1.0499,-0.5237 1.12081,-1.8372 1.70372,-3.1759 0.58291,-1.3386 1.23198,-3.2315 1.66595,-4.8797 0.43397,-1.6482 0.93716,-4.9826 0.93716,-4.9826 0,0 -2.63148,0.1733 -4.16737,0.012 -1.53588,-0.1614 -3.26797,-0.442 -4.98427,-1.0739 -1.7163,-0.6319 -5.17436,-2.7824 -5.17436,-2.7824 0,0 0.24712,-1.3873 0.62637,-2.4958 0.37924,-1.1084 0.99266,-2.8276 1.79017,-4.0807 1.3719,-2.1558 3.00946,-4.2316 5.0553,-5.7626 1.69795,-1.2705 3.76843,-1.9808 5.77193,-2.6761 0.93019,-0.3229 2.87341,-0.6848 2.87341,-0.6848 0,0 -1.07799,-1.3164 -1.59199,-1.994 -1.07448,-1.4165 -2.3683,-3.0163 -3.11691,-4.3284 -0.74861,-1.3121 -1.15071,-2.1241 -1.49657,-3.4164 -0.34586,-1.2924 -0.38761,-2.7763 -0.47225,-4.2709 -0.0847,-1.4946 -0.0142,-4.6851 -0.0142,-4.6851 0,0 4.71549,0.1413 6.89008,1.0297 2.06641,0.8443 5.28797,3.8321 5.28797,3.8321 0,0 -0.4372,-4.2404 -0.4252,-6.363 0.0144,-2.5466 0.0985,-5.2094 0.73787,-7.6745 0.68745,-2.6505 1.85447,-5.2985 3.36127,-7.6359 1.52925,-2.3722 5.64997,-6.3065 5.64997,-6.3065 0,0 2.97244,3.1264 4.18118,4.9014 1.78566,2.6222 3.51851,5.3751 4.47422,8.4002 0.73849,2.3375 0.89932,7.2989 0.89932,7.2989 0,0 3.44226,-2.3025 5.28172,-3.243 1.84961,-0.9457 5.75303,-2.3961 5.75303,-2.3961 0,0 -2.80027,-1.4842 -4.06744,-2.485 -1.26717,-1.0008 -3.51353,-3.668 -3.51353,-3.668 0,0 2.38482,-3.0031 3.81165,-4.3909 1.42683,-1.3877 2.92898,-2.7939 4.33951,-3.7984 1.41054,-1.0045 2.17999,-1.7103 4.64886,-2.2739 2.46886,-0.5635 4.96951,-1.2182 9.45145,-0.1288 l 4.12119,1.201 c 0,0 -1.58925,-2.7553 -2.08648,-4.2545 -0.58801,-1.773 -1.02821,-5.5086 -1.02821,-5.5086 0,0 5.32251,-0.2409 7.95382,0.085 1.52127,0.1884 4.4714,1.0744 4.4714,1.0744 0,0 -0.37428,-1.7186 -0.49175,-2.58918 -0.1906,-1.41258 -0.34212,-2.83688 -0.34407,-4.26227 -0.004,-2.75392 0.23535,-5.51306 0.6422,-8.23675 0.4116,-2.7554 1.81376,-8.15874 1.81376,-8.15874 0,0 4.14028,1.54802 6.07644,2.59888 1.80115,0.97759 3.52966,2.11455 5.10737,3.42246 2.45873,2.03827 6.71663,6.83271 6.71663,6.83271 0,0 3.2139,-2.23027 4.96358,-3.08789 1.99084,-0.97583 4.09306,-1.74578 6.23673,-2.31177 1.83593,-0.48473 5.62257,-0.91489 5.62257,-0.91489 0,0 -1.60242,-3.37775 -2.04172,-5.18141 -0.33552,-1.37754 -0.3778,-2.86741 -0.43503,-4.23112 -0.0572,-1.36371 0.0731,-3.93535 0.0731,-3.93535 0,0 5.56627,0.0388 8.28072,0.57485 2.35469,0.46502 4.65116,1.27038 6.8335,2.26949 2.18859,1.00198 4.35131,2.16006 6.20099,3.70039 1.84724,1.53831 4.75537,5.4217 4.75537,5.4217 0,0 -0.0942,-2.89233 0.11408,-4.31654 0.20936,-1.43167 0.48384,-2.89704 1.13262,-4.19034 0.88325,-1.76067 3.65088,-4.86769 3.65088,-4.86769 0,0 2.78515,2.91288 4.07688,4.45753 1.32518,1.58468 2.23454,2.94931 2.9653,4.88149 1.05517,2.78992 0.85636,9.23516 0.85636,9.23516 1.81964,-1.8056 4.48027,-3.73349 6.93999,-4.76973 2.99695,-1.26257 6.56822,-1.17544 9.81888,-0.72405 2.38334,0.33096 5.09735,1.70057 6.78204,2.47231 -0.63366,1.98379 -1.29667,3.78818 -2.03775,5.64706 -0.82661,2.07341 -1.73516,4.28693 -2.68402,6.13493 -0.61029,1.1886 -1.06701,1.55908 -1.50172,2.41626 1.91615,0.7982 3.42514,2.2072 4.67539,4.0043 -1.51366,0.4895 -3.10091,4.2542 -4.00807,6.6905 -0.62967,1.6911 -0.75193,3.5371 -0.93269,5.3326 -0.18952,1.8824 -0.15621,5.6736 -0.15621,5.6736 1.51868,-2.0094 3.27748,-3.0008 5.28656,-3.8436 1.12785,-0.4731 3.61892,-0.6055 3.61892,-0.6055 1.04666,1.4566 1.90823,3.4855 2.25027,5.4077 0.49335,2.7725 0.14455,5.6695 -0.35587,8.4408 -0.29282,1.6216 -0.71644,3.2684 -1.53235,4.7 -0.92339,1.6203 -2.44529,3.0283 -4.00192,4.1589 -0.88303,0.6414 -2.94573,1.4733 -2.94573,1.4733 0,0 1.00876,3.3912 1.23682,5.138 0.25935,1.9863 0.14083,6.0078 0.14083,6.0078 1.20728,-1.3274 2.58093,-2.5985 4.09791,-3.6013 1.21752,-0.8049 3.94786,-1.8937 3.94786,-1.8937 0,0 1.27182,2.3296 1.73975,3.567 0.54243,1.4344 0.90809,2.9341 1.22402,4.4347 0.31946,1.5174 0.50497,3.03 0.49863,4.5586 -0.008,1.9643 -0.54966,3.9425 -1.08705,5.8526 -0.44932,1.597 -1.11449,3.062 -2.08531,4.3401 -0.72253,0.9513 -2.69533,2.3618 -2.69533,2.3618 0,0 3.03239,1.0716 4.4201,1.8667 1.15529,0.662 3.20148,2.3889 3.20148,2.3889 0,0 -2.41428,4.5968 -4.32937,6.2615 -0.71485,0.6214 -1.62128,1.0423 -2.53943,1.275 -1.86127,0.4717 -6.11111,0.1793 -6.11111,0.1793 0,0 0.0441,2.0155 -0.0763,3.0128 -0.16963,1.4052 -0.56399,2.775 -0.90571,4.1485 -0.35464,1.4255 -1.187,4.2438 -1.187,4.2438 0,0 1.93133,-1.8824 2.47966,-1.1452 1.16076,1.5608 -1.00828,7.8851 -0.19913,7.8851 0.52184,0.3827 4.09609,-3.4799 4.80611,-3.6722 0.92878,-0.2515 0.47641,2.5399 0.52892,3.8264 0.0837,2.0505 -0.18861,4.1006 -0.34326,6.147 -0.12362,1.6359 -0.40712,3.9772 -1.26271,5.7393 -0.86144,1.7742 -2.31675,3.3345 -3.75469,4.5728 -1.46712,1.2635 -3.32625,1.9059 -5.1537,2.4158 -1.26788,0.3539 -4.14779,0.3292 -4.14779,0.3292 0,0 -0.0926,2.8367 -0.0182,4.2522 0.0728,1.3858 0.25572,2.7649 0.45394,4.1384 0.22049,1.5279 0.35285,3.0862 0.81723,4.5584 0.29147,0.924 1.22154,2.6376 1.22154,2.6376 0,0 -2.56607,-0.3566 -3.80851,-0.094 -1.4493,0.3063 -3.37012,0.8651 -4.63706,1.6326 -1.46916,0.8901 -3.0346,2.1171 -4.19647,3.2439 -1.32106,1.2812 -2.52519,2.4647 -3.47278,3.8921 -1.01755,1.5328 -1.87865,3.2243 -2.45097,4.9657 -0.66523,2.0241 -0.5946,5.9662 -0.5946,5.9662 0,0 -3.15117,-2.4712 -4.8065,-3.5418 -1.38958,-0.8988 -2.97231,-1.9659 -4.43088,-2.7183 -1.91404,-0.9875 -3.87188,-1.9076 -5.78449,-2.7019 -2.30959,-0.9591 -4.72501,-1.9566 -7.0213,-2.8022 -1.8728,-0.6896 -3.64482,-1.1497 -5.53012,-1.5381 -1.47569,-0.3041 -4.45807,-0.6662 -4.45807,-0.6662 0,0 -0.26279,3.8087 -0.52266,5.6929 -0.26963,1.955 -0.38574,4.0022 -1.20923,5.7957 -0.52956,1.1533 -2.31984,3.0189 -2.31984,3.0189 0,0 -3.43958,-3.0955 -4.84522,-4.9559 -1.22498,-1.6212 -2.83751,-5.3953 -2.83751,-5.3953 0,0 -3.38568,6.7892 -5.82262,9.851 -2.14722,2.6977 -7.54502,7.3246 -7.54502,7.3246 0,0 -3.41473,-5.1222 -4.75551,-7.8824 -0.52155,-1.0737 -0.76525,-2.2236 -1.00144,-3.3937 -0.80238,-3.9749 -0.44803,-12.5106 -0.44803,-12.5106 0,0 -6.56112,-0.9275 -9.34098,0.4843 -1.89783,0.9639 -2.33264,3.6684 -4.02881,4.9544 -1.43908,1.0911 -3.24029,1.6379 -4.97016,2.1565 -1.28725,0.3859 -2.63624,0.541 -3.97126,0.6948 -2.11487,0.2437 -6.37648,0.3591 -6.37648,0.3591 l 0.14538,-6.8527 c 0,0 -4.12887,3.7175 -6.54051,5.1259 -1.60136,0.9352 -3.67299,1.4149 -5.49894,1.7629 -4.61904,0.8803 -9.44835,0.2746 -14.10058,-0.4089 -1.62709,-0.239 -5.32684,-1.0314 -5.32684,-1.0314 0,0 0.23568,-3.9366 0.54195,-5.1627 0.30627,-1.2262 0.31491,-1.6878 0.53903,-2.4083 0.312,-1.003 1.58883,-3.0566 1.58883,-3.0566 0,0 -4.26633,0.4612 -6.40831,0.4787 -2.31141,0.019 -4.84999,-0.2256 -7.09946,-0.7575 -3.25244,-0.7689 -6.79234,-1.9097 -9.69718,-3.5625 -2.53796,-1.444 -4.74769,-3.1946 -6.86498,-5.1505 -3.74153,-3.4563 -9.9681,-11.2305 -9.9681,-11.2305 0,0 2.42792,-3.2447 3.89178,-4.6054 0.91785,-0.8532 3.73731,-2.7112 3.73731,-2.7112 0,0 -2.92595,-1.1361 -4.02314,-1.9002 -1.35168,-0.9413 -2.80557,-2.3173 -3.9496,-3.6905 z m 200.45684,83.52576 c 0.42251,0.4218 0.49637,1.1997 0.16497,1.7374 -0.3314,0.5377 -0.94256,0.6317 -1.36507,0.2099 -0.42251,-0.4217 -0.49636,-1.1996 -0.16497,-1.7373 0.33034,-0.536 0.93893,-0.6314 1.36158,-0.2134 m 11.69306,5.082 c 0.40331,0.3465 0.47381,0.9854 0.15747,1.4271 -0.31633,0.4417 -0.89972,0.519 -1.30302,0.1725 -0.4033,-0.3465 -0.4738,-0.9854 -0.15747,-1.4271 0.31532,-0.4403 0.89626,-0.5187 1.29969,-0.1753 m -2.00012,-7.2373 c 0.3841,0.3615 0.45124,1.0281 0.14997,1.4892 -0.30127,0.4609 -0.85688,0.5414 -1.24097,0.1799 -0.3841,-0.3615 -0.45124,-1.0283 -0.14997,-1.4892 0.3003,-0.4595 0.85357,-0.5412 1.2378,-0.183 m -1.75783,8.3245 c 0.65296,0.5122 0.76711,1.4567 0.25495,2.1097 -0.51217,0.6529 -1.45669,0.7671 -2.10965,0.2549 -0.65297,-0.5122 -0.76711,-1.4567 -0.25495,-2.1096 0.51051,-0.6509 1.45107,-0.7667 2.10425,-0.2592 m -3.87056,0.3012 c 0.53773,0.4218 0.63174,1.1997 0.20995,1.7374 -0.42178,0.5377 -1.19962,0.6317 -1.73736,0.2099 -0.53773,-0.4217 -0.63173,-1.1996 -0.20995,-1.7373 0.42042,-0.536 1.195,-0.6314 1.73292,-0.2134 m 5.86955,-13.3222 c 0.61456,0.467 0.72199,1.3282 0.23995,1.9236 -0.48203,0.5953 -1.37099,0.6994 -1.98555,0.2324 -0.61456,-0.467 -0.72199,-1.3281 -0.23995,-1.9235 0.48048,-0.5934 1.36572,-0.6991 1.98048,-0.2363 m 3.72622,8.1001 c 0.59535,0.4218 0.69942,1.1997 0.23245,1.7374 -0.46697,0.5377 -1.32815,0.6317 -1.9235,0.21 -0.59535,-0.4218 -0.69943,-1.1997 -0.23245,-1.7374 0.46546,-0.536 1.32303,-0.6314 1.91858,-0.2134 m -4.37866,0.2421 c 0.65297,0.5122 0.76711,1.4567 0.25495,2.1097 -0.51216,0.6529 -1.45669,0.7671 -2.10965,0.2549 -0.65297,-0.5121 -0.76711,-1.4567 -0.25495,-2.1096 0.51051,-0.6509 1.45107,-0.7667 2.10426,-0.2592 m -7.45417,1.9937 c 0.59535,0.4368 0.69942,1.2425 0.23245,1.7994 -0.46697,0.5569 -1.32816,0.6543 -1.92351,0.2175 -0.59535,-0.4369 -0.69942,-1.2425 -0.23245,-1.7995 0.46547,-0.5551 1.32304,-0.6539 1.91859,-0.221 m 11.23809,-8.4301 c 1.11482,-0.2713 2.15813,0.4685 2.33037,1.6526 0.17219,1.1839 -0.59188,2.3638 -1.7067,2.6351 -1.11482,0.2713 -2.15813,-0.4685 -2.33038,-1.6526 -0.17167,-1.1802 0.58713,-2.357 1.6975,-2.6329 m -7.69886,-2.0217 c 0.71058,0.5423 0.8348,1.5424 0.27745,2.2337 -0.55736,0.6914 -1.58522,0.8123 -2.2958,0.27 -0.71058,-0.5423 -0.8348,-1.5424 -0.27744,-2.2338 0.55556,-0.6891 1.57911,-0.8118 2.28992,-0.2744 m 0.46706,4.4131 c 0.90263,0.6778 1.06042,1.928 0.35243,2.7922 -0.70799,0.8642 -2.01366,1.0153 -2.91629,0.3373 -0.90262,-0.6777 -1.06041,-1.9278 -0.35242,-2.792 0.70571,-0.8615 2.00589,-1.0148 2.90882,-0.3431 m 1.59276,-7.3438 c 5.61605,-0.7562 9.96685,3.1966 9.7177,8.8289 -0.24909,5.6323 -5.00379,10.8113 -10.61992,11.5674 -5.61613,0.7562 -9.96686,-3.1966 -9.71777,-8.8289 0.24833,-5.6142 4.97456,-10.7817 10.57368,-11.561 m 1.86977,-5.84185 -5.26517,-5.9268 c 0,0 -1.59731,-0.3016 -2.40629,-0.3215 -0.78374,-0.019 -2.34371,0.1965 -2.34371,0.1965 l 5.125,6.375 2.0823,-0.4497 z m -16.64017,-2.1768 c 0,0 1.19384,-1.3137 1.90383,-1.8366 0.7184,-0.5291 2.34617,-1.2884 2.34617,-1.2884 l 5.35355,6.3018 c 0,0 -1.88089,0.6102 -2.57696,1.1085 -0.68466,0.4902 -1.90159,1.6629 -1.90159,1.6629 z m -4.375,6.25 c 0,0 0.40149,-1.6462 0.81371,-2.3742 0.42978,-0.7589 1.68629,-2.0008 1.68629,-2.0008 l 5.39645,5.5581 c 0,0 -1.3066,1.3393 -1.82939,2.0389 -0.55828,0.7471 -0.94206,2.653 -0.94206,2.653 z m -1.125,2.625 c 0,0 -0.46715,1.2474 -0.55325,1.902 -0.10751,0.8175 0.0533,2.473 0.0533,2.473 l 5.14017,5.6919 c 0,0 0.0859,-1.9659 0.23017,-2.9375 0.10519,-0.7086 0.46177,-2.0991 0.46177,-2.0991 z m -9.28661,-35.7348 c 0,0 1.83991,-0.2552 2.80273,-0.2102 0.8711,0.041 2.60888,0.1949 2.60888,0.1949 l 16,17.75 c 0,0 -1.70931,-0.024 -2.51977,0.097 -0.82169,0.1223 -2.37668,0.632 -2.37668,0.632 z m -6.39017,3.3964 c 0,0 0.99365,-1.5328 1.72719,-2.0373 0.7431,-0.5111 2.55314,-0.8957 2.55314,-0.8957 l 0.58798,0.6987 15.80847,18.3013 c 0,0 -1.03168,0.6748 -1.77607,1.3064 -0.63061,0.5351 -2.09893,1.84 -2.09893,1.84 l -15.77933,-18.0995 z m -4.32322,6.4634 c 0,0 0.66445,-1.7771 1.16499,-2.5754 0.47267,-0.7538 1.71001,-2.0496 1.71001,-2.0496 l 16.75,19.125 c 0,0 -1.0416,1.1948 -1.48864,1.847 -0.52277,0.7628 -1.38636,2.403 -1.38636,2.403 z m -1.32322,8.1036 c 0.0448,-0.8514 -0.19334,-1.715 -0.15957,-2.574 0.0335,-0.8509 0.31927,-1.7976 0.35779,-2.5296 5.58333,5.9583 11.04167,11.9167 16.625,17.875 -0.14443,0.7428 -0.38414,1.3594 -0.52167,2.0515 -0.16072,0.8088 -0.20609,1.6913 -0.35333,2.4485 -5.375,-5.875 -10.57322,-11.3964 -15.94822,-17.2714 z" />
  </g>
</svg>
