<svg xmlns="http://www.w3.org/2000/svg" viewBox="0 0 224.93 228.88"><g transform="translate(-6.177-2.497)" fill-rule="evenodd"><path d="m151.5373 1181.3006a1.281631 1.149049 0 0 1 .21835 1.6122 1.281631 1.149049 0 0 1 -1.79801 .1976 1.281631 1.149049 0 0 1 -.22244 -1.6117 1.281631 1.149049 0 0 1 1.7975 -.2013" transform="translate(74.81-968.36)" fill="#fff" fill-opacity="0"/><path d="m100.29 57.44c1.905 2.253 3.682 5.341 4.11 8.441.468 3.39.198 8.142-1.823 10.1 0 0 .497-2.181.324-4.362-.196-2.466-1.237-5.572-1.454-6.167-.683-1.566-1.49-3.081-2.836-3.799-2.352.662-4.04 2.177-5.277 3.936.686-3.259 3.403-6.287 6.447-7.845zm28.531-12.03c4.23 1.161 8.993 3.416 12.1 6.757 3.392 3.654 7 9.513 6.122 13.449 0 0-1.193-2.986-3.217-5.438-2.289-2.773-6.155-5.634-6.917-6.168-2.145-1.317-4.402-2.475-6.666-2.258-2.365 2.657-3.203 5.801-3.274 8.871-1.854-4.416-.998-10.173 1.479-14.444zm50.31-10.04c-3.796.658-8.174 2.319-11.227 5.218-3.338 3.17-7.102 8.457-6.763 12.373 0 0 1.357-2.765 3.378-4.921 2.286-2.438 5.95-4.786 6.669-5.22 2-1.041 4.088-1.914 6.03-1.453 1.767 2.84 2.155 5.984 1.886 8.971 2.085-4.081 1.963-9.762.273-14.181zm-95.16 126.66c3.307-.89 7.04-2.662 9.502-5.336 2.688-2.924 5.572-7.638 4.94-10.844 0 0-.967 2.41-2.574 4.376-1.817 2.224-4.864 4.498-5.464 4.922-1.687 1.043-3.459 1.955-5.217 1.75-1.807-2.187-2.417-4.75-2.433-7.244-1.5 3.563-.909 8.248.964 11.747zm90.58-32.635c2.189 2.312 4.289 5.532 4.938 8.847.709 3.624.705 8.761-1.355 10.995 0 0 .404-2.38.086-4.719-.36-2.645-1.669-5.929-1.938-6.556-.83-1.646-1.791-3.23-3.285-3.923-2.495.855-4.224 2.59-5.449 4.559.542-3.553 3.288-6.979 6.473-8.842zm-45.723 25.465c3.204 3.337 7.731 6.607 12.496 7.778 5.21 1.28 12.665 1.629 16.05-1.204 0 0-3.481.422-6.854-.202-3.814-.706-8.488-2.833-9.38-3.267-2.332-1.319-4.563-2.823-5.465-5.04 1.414-3.561 4.051-5.95 6.993-7.591-5.193.541-10.355 4.288-13.279 8.78zm-90.38-12.05c4.081 2.838 9.543 5.327 14.811 5.553 5.76.247 13.688-.962 16.655-4.663 0 0-3.579 1.181-7.264 1.237-4.168.063-9.542-1.19-10.574-1.458-2.735-.896-5.405-2.01-6.823-4.152.736-4.05 3.01-7.126 5.762-9.477-5.357 1.668-10 6.708-12.134 12.06zm21.92-56.07c.917 4.724 2.967 10.124 6.308 13.802 3.654 4.02 9.655 8.468 13.941 7.846 0 0-3.108-1.56-5.58-3.982-2.796-2.74-5.563-7.212-6.076-8.09-1.246-2.458-2.313-5.02-1.905-7.48 3.03-2.358 6.464-3 9.76-2.819-4.59-2.405-10.826-1.963-15.594.379zm32.461 16.307c1.762 5.621 5.07 11.917 9.839 15.952 5.215 4.413 13.517 9.04 18.983 7.724 0 0-4.209-1.492-7.7-4.115-3.949-2.966-8.07-8.04-8.844-9.04-1.911-2.825-3.603-5.805-3.375-8.842 3.63-3.259 7.992-4.489 12.276-4.692-6.228-2.327-14.238-.981-20.12 2.484zm62.18-19.361c0 0-2.258 3.482-3.083 5.495-1.157 2.824-1.907 5-2.261 8.03-.284 2.43-.302 6.362.239 9.02.622 3.056 3.473 7.975 3.473 7.975 0 0-.818-6.93-.53-10.384.185-2.218.796-4.389 1.44-6.519.431-1.425.918-2.85 1.617-4.165.631-1.186 2.298-3.311 2.298-3.311 0 0 2.802 1.844 4.081 2.923 1.113.939 2.077 2.041 3.104 3.072.784.787 2.335 2.376 2.335 2.376 0 0-1.274-3.504-2.216-5.101-.508-.862-1.198-1.603-1.83-2.378-.551-.675-.82-1.099-1.71-1.979-.89-.88-2.503-2.4-3.676-3.249-1.173-.85-3.281-1.804-3.281-1.804m-142.09 53c-1.144-1.373-1.858-2.972-2.838-4.424-1.03-1.527-3.416-4.463-3.416-4.463 0 0 3.567-2.572 5.532-3.534 1.204-.589 2.626-1.017 4.01-1.171 2.671-.298 8.05.502 8.05.502 0 0-2.496-2.041-3.441-3.327-.621-.845-1.41-2.812-1.41-2.812 0 0 2.479-1.727 4.18-2.129 1.785-.423 3.638-.671 5.591-.435 1.217.147 2.715.569 3.768 1.198.758.453 2.138 2.093 2.138 2.093 0 0 1.089.082 1.518-.132 1.05-.524 1.121-1.837 1.704-3.176.583-1.339 1.232-3.231 1.666-4.88.434-1.648.937-4.983.937-4.983 0 0-2.631.173-4.167.012-1.536-.161-3.268-.442-4.984-1.074-1.716-.632-5.174-2.782-5.174-2.782 0 0 .247-1.387.626-2.496.379-1.108.993-2.828 1.79-4.081 1.372-2.156 3.01-4.232 5.055-5.763 1.698-1.27 3.768-1.981 5.772-2.676.93-.323 2.873-.685 2.873-.685 0 0-1.078-1.316-1.592-1.994-1.074-1.416-2.368-3.02-3.117-4.328-.749-1.312-1.151-2.124-1.497-3.416-.346-1.292-.388-2.776-.472-4.271-.085-1.495-.014-4.685-.014-4.685 0 0 4.715.141 6.89 1.03 2.066.844 5.288 3.832 5.288 3.832 0 0-.437-4.24-.425-6.363.014-2.547.099-5.209.738-7.675.687-2.651 1.854-5.298 3.361-7.636 1.529-2.372 5.65-6.306 5.65-6.306 0 0 2.972 3.126 4.181 4.901 1.786 2.622 3.519 5.375 4.474 8.4.738 2.337.899 7.299.899 7.299 0 0 3.442-2.303 5.282-3.243 1.85-.946 5.753-2.396 5.753-2.396 0 0-2.8-1.484-4.067-2.485-1.267-1-3.514-3.668-3.514-3.668 0 0 2.385-3 3.812-4.391 1.427-1.388 2.929-2.794 4.34-3.798 1.411-1 2.18-1.71 4.649-2.274 2.469-.563 4.97-1.218 9.451-.129l4.121 1.201c0 0-1.589-2.755-2.086-4.255-.588-1.773-1.028-5.509-1.028-5.509 0 0 5.323-.241 7.954.085 1.521.188 4.471 1.074 4.471 1.074 0 0-.374-1.719-.492-2.589-.191-1.413-.342-2.837-.344-4.262-.004-2.754.235-5.513.642-8.237.412-2.755 1.814-8.159 1.814-8.159 0 0 4.14 1.548 6.076 2.599 1.801.978 3.53 2.115 5.107 3.422 2.459 2.038 6.717 6.833 6.717 6.833 0 0 3.214-2.23 4.964-3.088 1.991-.976 4.093-1.746 6.237-2.312 1.836-.485 5.623-.915 5.623-.915 0 0-1.602-3.378-2.042-5.181-.336-1.378-.378-2.867-.435-4.231-.057-1.364.073-3.935.073-3.935 0 0 5.566.039 8.281.575 2.355.465 4.651 1.27 6.833 2.269 2.189 1 4.351 2.16 6.201 3.7 1.847 1.538 4.755 5.422 4.755 5.422 0 0-.094-2.892.114-4.317.209-1.432.484-2.897 1.133-4.19.883-1.761 3.651-4.868 3.651-4.868 0 0 2.785 2.913 4.077 4.458 1.325 1.585 2.235 2.949 2.965 4.881 1.055 2.79.856 9.235.856 9.235 1.82-1.806 4.48-3.733 6.94-4.77 2.997-1.263 6.568-1.175 9.819-.724 2.383.331 5.097 1.701 6.782 2.472-.634 1.984-1.297 3.788-2.038 5.647-.827 2.073-1.735 4.287-2.684 6.135-.61 1.189-1.067 1.559-1.502 2.416 1.916.798 3.425 2.207 4.675 4-1.514.489-3.101 4.254-4.01 6.691-.63 1.691-.752 3.537-.933 5.333-.19 1.882-.156 5.674-.156 5.674 1.519-2.01 3.277-3 5.287-3.844 1.128-.473 3.619-.605 3.619-.605 1.047 1.457 1.908 3.486 2.25 5.408.493 2.773.145 5.669-.356 8.441-.293 1.622-.716 3.268-1.532 4.7-.923 1.62-2.445 3.03-4 4.159-.883.641-2.946 1.473-2.946 1.473 0 0 1.01 3.391 1.237 5.138.259 1.986.141 6.01.141 6.01 1.207-1.327 2.581-2.599 4.098-3.601 1.218-.805 3.948-1.894 3.948-1.894 0 0 1.272 2.33 1.74 3.567.542 1.434.908 2.934 1.224 4.435.319 1.517.505 3.03.499 4.559-.008 1.964-.55 3.942-1.087 5.853-.449 1.597-1.114 3.062-2.085 4.34-.723.951-2.695 2.362-2.695 2.362 0 0 3.03 1.072 4.42 1.867 1.155.662 3.201 2.389 3.201 2.389 0 0-2.414 4.597-4.329 6.261-.715.621-1.621 1.042-2.539 1.275-1.861.472-6.111.179-6.111.179 0 0 .044 2.02-.076 3.01-.17 1.405-.564 2.775-.906 4.148-.355 1.425-1.187 4.244-1.187 4.244 0 0 1.931-1.882 2.48-1.145 1.161 1.561-1.01 7.885-.199 7.885.522.383 4.096-3.48 4.806-3.672.929-.251.476 2.54.529 3.826.084 2.05-.189 4.101-.343 6.147-.124 1.636-.407 3.977-1.263 5.739-.861 1.774-2.317 3.334-3.755 4.573-1.467 1.263-3.326 1.906-5.154 2.416-1.268.354-4.148.329-4.148.329 0 0-.093 2.837-.018 4.252.073 1.386.256 2.765.454 4.138.22 1.528.353 3.086.817 4.558.291.924 1.222 2.638 1.222 2.638 0 0-2.566-.357-3.809-.094-1.449.306-3.37.865-4.637 1.633-1.469.89-3.035 2.117-4.196 3.244-1.321 1.281-2.525 2.465-3.473 3.892-1.018 1.533-1.879 3.224-2.451 4.966-.665 2.024-.595 5.966-.595 5.966 0 0-3.151-2.471-4.806-3.542-1.39-.899-2.972-1.966-4.431-2.718-1.914-.988-3.872-1.908-5.784-2.702-2.31-.959-4.725-1.957-7.02-2.802-1.873-.69-3.645-1.15-5.53-1.538-1.476-.304-4.458-.666-4.458-.666 0 0-.263 3.809-.523 5.693-.27 1.955-.386 4-1.209 5.796-.53 1.153-2.32 3.02-2.32 3.02 0 0-3.44-3.095-4.845-4.956-1.225-1.621-2.838-5.395-2.838-5.395 0 0-3.386 6.789-5.823 9.851-2.147 2.698-7.545 7.325-7.545 7.325 0 0-3.415-5.122-4.756-7.882-.522-1.074-.765-2.224-1-3.394-.802-3.975-.448-12.511-.448-12.511 0 0-6.561-.928-9.341.484-1.898.964-2.333 3.668-4.03 4.954-1.439 1.091-3.24 1.638-4.97 2.156-1.287.386-2.636.541-3.971.695-2.115.244-6.376.359-6.376.359l.145-6.853c0 0-4.129 3.718-6.541 5.126-1.601.935-3.673 1.415-5.499 1.763-4.619.88-9.448.275-14.1-.409-1.627-.239-5.327-1.031-5.327-1.031 0 0 .236-3.937.542-5.163.306-1.226.315-1.688.539-2.408.312-1 1.589-3.057 1.589-3.057 0 0-4.266.461-6.408.479-2.311.019-4.85-.226-7.099-.757-3.252-.769-6.792-1.91-9.697-3.563-2.538-1.444-4.748-3.195-6.865-5.15-3.742-3.456-9.968-11.231-9.968-11.231 0 0 2.428-3.245 3.892-4.605.918-.853 3.737-2.711 3.737-2.711 0 0-2.926-1.136-4.02-1.9-1.352-.941-2.806-2.317-3.95-3.69m200.46 83.53c.423.422.496 1.2.165 1.737-.331.538-.943.632-1.365.21-.423-.422-.496-1.2-.165-1.737.33-.536.939-.631 1.362-.213m11.693 5.082c.403.346.474.985.157 1.427-.316.442-.9.519-1.303.173-.403-.346-.474-.985-.157-1.427.315-.44.896-.519 1.3-.175m-2-7.237c.384.362.451 1.028.15 1.489-.301.461-.857.541-1.241.18-.384-.362-.451-1.028-.15-1.489.3-.459.854-.541 1.238-.183m-1.758 8.325c.653.512.767 1.457.255 2.11-.512.653-1.457.767-2.11.255-.653-.512-.767-1.457-.255-2.11.511-.651 1.451-.767 2.104-.259m-3.871.301c.538.422.632 1.2.21 1.737-.422.538-1.2.632-1.737.21-.538-.422-.632-1.2-.21-1.737.42-.536 1.195-.631 1.733-.213m5.87-13.322c.615.467.722 1.328.24 1.924-.482.595-1.371.699-1.986.232-.615-.467-.722-1.328-.24-1.923.48-.593 1.366-.699 1.98-.236m3.726 8.1c.595.422.699 1.2.232 1.737-.467.538-1.328.632-1.923.21-.595-.422-.699-1.2-.232-1.737.465-.536 1.323-.631 1.919-.213m-4.379.242c.653.512.767 1.457.255 2.11-.512.653-1.457.767-2.11.255-.653-.512-.767-1.457-.255-2.11.511-.651 1.451-.767 2.104-.259m-7.454 1.994c.595.437.699 1.243.232 1.799-.467.557-1.328.654-1.924.218-.595-.437-.699-1.243-.232-1.799.465-.555 1.323-.654 1.919-.221m11.238-8.43c1.115-.271 2.158.469 2.33 1.653.172 1.184-.592 2.364-1.707 2.635-1.115.271-2.158-.469-2.33-1.653-.172-1.18.587-2.357 1.697-2.633m-7.699-2.02c.711.542.835 1.542.277 2.234-.557.691-1.585.812-2.296.27-.711-.542-.835-1.542-.277-2.234.556-.689 1.579-.812 2.29-.274m.467 4.413c.903.678 1.06 1.928.352 2.792-.708.864-2.01 1.015-2.916.337-.903-.678-1.06-1.928-.352-2.792.706-.862 2.01-1.015 2.909-.343m1.593-7.344c5.616-.756 9.967 3.197 9.718 8.829-.249 5.632-5 10.811-10.62 11.567-5.616.756-9.967-3.197-9.718-8.829.248-5.614 4.975-10.782 10.574-11.561m1.87-5.842l-5.265-5.927c0 0-1.597-.302-2.406-.321-.784-.019-2.344.196-2.344.196l5.125 6.375 2.082-.45zm-16.64-2.177c0 0 1.194-1.314 1.904-1.837.718-.529 2.346-1.288 2.346-1.288l5.354 6.302c0 0-1.881.61-2.577 1.108-.685.49-1.902 1.663-1.902 1.663zm-4.375 6.25c0 0 .401-1.646.814-2.374.43-.759 1.686-2 1.686-2l5.396 5.558c0 0-1.307 1.339-1.829 2.039-.558.747-.942 2.653-.942 2.653zm-1.125 2.625c0 0-.467 1.247-.553 1.902-.108.817.053 2.473.053 2.473l5.14 5.692c0 0 .086-1.966.23-2.938.105-.709.462-2.099.462-2.099zm-9.287-35.735c0 0 1.84-.255 2.803-.21.871.041 2.609.195 2.609.195l16 17.75c0 0-1.709-.024-2.52.097-.822.122-2.377.632-2.377.632zm-6.39 3.396c0 0 .994-1.533 1.727-2.037.743-.511 2.553-.896 2.553-.896l.588.699 15.808 18.301c0 0-1.032.675-1.776 1.306-.631.535-2.099 1.84-2.099 1.84l-15.779-18.1zm-4.323 6.463c0 0 .664-1.777 1.165-2.575.473-.754 1.71-2.05 1.71-2.05l16.75 19.12c0 0-1.042 1.195-1.489 1.847-.523.763-1.386 2.403-1.386 2.403zm-1.323 8.104c.045-.851-.193-1.715-.16-2.574.034-.851.319-1.798.358-2.53 5.583 5.958 11.04 11.917 16.625 17.875-.144.743-.384 1.359-.522 2.052-.161.809-.206 1.691-.353 2.448-5.375-5.875-10.573-11.396-15.948-17.271"/></g></svg>