<?xml version="1.0" encoding="UTF-8" standalone="no"?>
<!-- Created with Inkscape (http://www.inkscape.org/) -->

<svg
   xmlns:dc="http://purl.org/dc/elements/1.1/"
   xmlns:cc="http://creativecommons.org/ns#"
   xmlns:rdf="http://www.w3.org/1999/02/22-rdf-syntax-ns#"
   xmlns:svg="http://www.w3.org/2000/svg"
   xmlns="http://www.w3.org/2000/svg"
   xmlns:sodipodi="http://sodipodi.sourceforge.net/DTD/sodipodi-0.dtd"
   xmlns:inkscape="http://www.inkscape.org/namespaces/inkscape"
   width="59.908421mm"
   height="84.935432mm"
   viewBox="0 0 212.27393 300.95232"
   id="svg2"
   version="1.1"
   inkscape:version="0.91 r13725"
   sodipodi:docname="cone.svg">
  <defs
     id="defs4" />
  <sodipodi:namedview
     id="base"
     pagecolor="#ffffff"
     bordercolor="#666666"
     borderopacity="1.0"
     inkscape:pageopacity="0.0"
     inkscape:pageshadow="2"
     inkscape:zoom="1.4"
     inkscape:cx="190.03531"
     inkscape:cy="147.76756"
     inkscape:document-units="px"
     inkscape:current-layer="layer1"
     showgrid="false"
     fit-margin-top="0"
     fit-margin-left="0"
     fit-margin-right="0"
     fit-margin-bottom="0"
     inkscape:window-width="1440"
     inkscape:window-height="838"
     inkscape:window-x="-8"
     inkscape:window-y="-8"
     inkscape:window-maximized="1" />
  <metadata
     id="metadata7">
    <rdf:RDF>
      <cc:Work
         rdf:about="">
        <dc:format>image/svg+xml</dc:format>
        <dc:type
           rdf:resource="http://purl.org/dc/dcmitype/StillImage" />
        <dc:title></dc:title>
      </cc:Work>
    </rdf:RDF>
  </metadata>
  <g
     inkscape:label="Layer 1"
     inkscape:groupmode="layer"
     id="layer1"
     transform="translate(-6.772885,-6.5786714)">
    <path
       inkscape:connector-curvature="0"
       d="m 73.181954,294.90167 c 39.875766,16.801 39.901006,16.87746 79.440996,-0.001 46.581,-11.938 68.93,-44.275 66.201,-71.284 -0.231,-2.291 -2.476,-4.04 -4.391,-4.04 0.576,-3.604 1.368,-9.292 1.761,-15.404 0.94,-14.599 -0.89,-23.779 -5.585,-28.071 -0.009,-0.009 -0.015,-0.019 -0.024,-0.027 -1.217,-1.156 -2.317,-2.803 -3.407,-4.652 1.795,-6.64 6.514,-28.547 -3.174,-47.431 -0.026,-0.052 -3.237,-5.477 -6.297,-7.866 0.016,-7.635 -1.461,-28.950999 -17.416,-36.667999 -1.363,-0.659 -2.947,-0.321 -2.984,-0.313 0.166,-10.915 -1.774,-18.665 -5.819,-23.109 -3.285,-3.609 -6.808,-3.855 -7.91,-3.867 -3.505,-0.017 -5.603,-3.467 -8.732,-9.087 -3.399,-6.108 -7.63,-13.707 -16.617,-13.708 l -0.001,0 c -3.521,0 -5.621,-3.453 -8.757,-9.086 -3.399,-6.108 -7.63,-13.7089996 -16.619,-13.7089996 -8.987,0 -13.216996,7.6009996 -16.617996,13.7079996 -3.135,5.634 -5.236,9.087 -8.758,9.087 -8.988,0 -13.221,7.602 -16.619,13.71 -3.127,5.619 -5.225,9.068 -8.727,9.085 -1.115,-0.018 -4.627,0.257 -7.914,3.868 -4.043,4.442 -5.975,12.201 -5.813,23.109 -0.039,-0.01 -1.631,-0.34 -2.99,0.311 -15.984,7.659 -17.434,29.032999 -17.418,36.667999 -3.059,2.39 -6.268,7.813 -6.295,7.865 -9.693001,18.894 -4.967001,40.803 -3.172001,47.43 -1.092,1.851 -2.191,3.498 -3.41,4.654 -0.006,0.006 -0.01,0.013 -0.016,0.019 -4.699,4.289 -6.5309998,13.473 -5.5919998,28.08 0.393,6.113 1.1839998,11.801 1.7599998,15.405 -3.9119998,0 -4.3809998,4.839 -4.3609998,5.012 -2.106,26.809 20.2460008,58.518 66.2730008,70.312 z m -51.865,-112.302 c 2.803,-2.662 4.764,-6.185 6.658,-9.591 3.135,-5.633 5.236,-9.085 8.754,-9.085 3.52,0 5.619,3.452 8.754,9.085 3.398,6.108 7.631,13.71 16.619,13.71 8.988,0 13.219,-7.6 16.617,-13.708 3.137,-5.634 5.236,-9.087 8.756,-9.087 3.521,0 5.623,3.453 8.758,9.087 3.4,6.107 7.630996,13.708 16.619996,13.708 8.989,0 13.219,-7.602 16.619,-13.709 3.135,-5.634 5.235,-9.086 8.754,-9.086 3.52,0 5.62,3.452 8.755,9.085 3.4,6.108 7.631,13.71 16.622,13.71 8.988,0 13.219,-7.602 16.618,-13.709 3.135,-5.634 5.235,-9.086 8.753,-9.086 3.519,0 5.619,3.452 8.754,9.085 1.896,3.406 3.856,6.929 6.658,9.591 0.027,0.025 0.059,0.042 0.086,0.066 0.016,0.015 0.026,0.032 0.043,0.046 3.273,2.882 3.549,15.986 1.934,29.295 -0.278,-0.49 -0.562,-0.994 -0.856,-1.523 -3.399,-6.108 -7.629,-13.71 -16.618,-13.71 -8.988,0 -13.219,7.602 -16.618,13.71 -3.135,5.633 -5.235,9.086 -8.753,9.086 -3.521,0 -5.622,-3.453 -8.758,-9.087 -3.399,-6.107 -7.63,-13.709 -16.619,-13.709 -8.989,0 -13.219,7.602 -16.619,13.71 -3.135,5.633 -5.235,9.086 -8.754,9.086 -3.52,0 -5.62,-3.452 -8.756,-9.086 -3.398,-6.108 -7.630996,-13.71 -16.620996,-13.71 -8.988,0 -13.221,7.602 -16.619,13.71 -3.135,5.634 -5.234,9.086 -8.754,9.086 -3.52,0 -5.619,-3.453 -8.756,-9.087 -3.398,-6.107 -7.629,-13.709 -16.617,-13.709 -8.988,0 -13.221,7.602 -16.619,13.71 -0.295,0.53 -0.58,1.035 -0.859001,1.525 -1.617,-13.306 -1.34,-26.41 1.938001,-29.297 0.016,-0.014 0.027,-0.03 0.041,-0.045 0.026,-0.024 0.058,-0.041 0.085,-0.067 z m 172.707996,80.061 c -9.254,9.355 -26.465,21.412 -56.018,26.071 -0.04,0 -10.418,0.788 -15.647,6.894 -2.538,2.963 -4.957,4.536 -9.454,4.536 -4.499,0 -6.639,-1.836 -9.454,-4.536 -5.060996,-4.854 -15.610996,-6.894 -15.653996,-6.894 -29.555,-4.659 -46.768,-16.716 -56.022,-26.071 -10.373,-10.485 -16.068001,-22.987 -16.000001,-34.795 1.119,-0.374 2.148,-0.877 3.098,-1.49 0.002,-0.001 0.004,-0.003 0.006,-0.005 4.178001,-2.702 6.826001,-7.434 9.094001,-11.51 3.137,-5.634 5.236,-9.087 8.756,-9.087 3.52,0 5.619,3.452 8.754,9.086 3.398,6.108 7.631,13.71 16.619,13.71 8.988,0 13.219,-7.602 16.617,-13.709 3.137,-5.634 5.236,-9.087 8.756,-9.087 3.521,0 5.623,3.453 8.758,9.087 3.4,6.107 7.630996,13.709 16.619996,13.709 8.989,0 13.219,-7.602 16.619,-13.71 3.135,-5.633 5.235,-9.086 8.754,-9.086 3.52,0 5.62,3.452 8.755,9.086 3.4,6.108 7.631,13.71 16.622,13.71 8.988,0 13.219,-7.602 16.618,-13.71 3.135,-5.633 5.235,-9.086 8.753,-9.086 3.519,0 5.619,3.453 8.754,9.086 2.269,4.077 4.917,8.809 9.095,11.512 0.001,0.001 0.003,0.003 0.005,0.004 0.977,0.632 2.04,1.148 3.199,1.524 0.056,11.798 -5.64,24.286 -16.003,34.761 z m -89.927,-237.996999 c 3.135,-5.633 5.234,-9.085 8.752,-9.085 3.52,0 5.62,3.452 8.755,9.086 1.714,3.079 3.645,6.533 6.287,9.204 -2.642,2.674 -4.571,6.133 -6.286,9.214 -3.135,5.634 -5.235,9.086 -8.754,9.086 -3.52,0 -5.62,-3.452 -8.756,-9.085 -1.717,-3.087 -3.65,-6.553 -6.300996,-9.229 2.644996,-2.67 4.587996,-6.111 6.302996,-9.191 z m -41.919996,36.504 c 8.936,-0.043 13.152,-7.618 16.541,-13.708 3.137,-5.634 5.236,-9.087 8.756,-9.087 3.521,0 5.623,3.453 8.758,9.087 3.4,6.107 7.630996,13.708 16.619996,13.708 8.989,0 13.219,-7.602 16.619,-13.709 3.135,-5.634 5.235,-9.086 8.754,-9.086 3.52,0 5.62,3.452 8.755,9.085 3.391,6.091 7.607,13.667 16.546,13.71 2.105,0.414 7.024,6.997 3.655,31.376 -1.076,0.955 -2.222,1.474 -3.579,1.474 -3.521,0 -5.622,-3.453 -8.758,-9.087 -3.399,-6.107 -7.63,-13.708 -16.619,-13.708 -8.989,0 -13.219,7.602 -16.619,13.709 -3.135,5.634 -5.235,9.086 -8.754,9.086 -3.52,0 -5.62,-3.452 -8.756,-9.085 -3.398,-6.108 -7.630996,-13.71 -16.620996,-13.71 -8.988,0 -13.221,7.602 -16.619,13.71 -3.135,5.633 -5.234,9.085 -8.754,9.085 -1.359,0 -2.506,-0.521 -3.582,-1.477 -3.37,-24.377 1.55,-30.959 3.657,-31.373 z m -16.379,28.71 c 3.35,6 7.588,13.140999 16.303,13.140999 8.988,0 13.219,-7.600999 16.617,-13.707999 3.137,-5.634 5.236,-9.087 8.756,-9.087 3.521,0 5.623,3.453 8.758,9.087 3.4,6.107 7.630996,13.707999 16.619996,13.707999 8.989,0 13.219,-7.601999 16.619,-13.708999 3.135,-5.634 5.235,-9.086 8.754,-9.086 3.52,0 5.62,3.452 8.755,9.085 3.4,6.108 7.631,13.709999 16.622,13.709999 8.718,0 12.957,-7.147999 16.306,-13.150999 6.754,5.817 8.37,16.765999 8.709,23.226999 -8.738,0.203 -12.909,7.666 -16.261,13.689 -3.135,5.634 -5.235,9.086 -8.753,9.086 -3.521,0 -5.622,-3.453 -8.758,-9.087 -3.399,-6.107 -7.63,-13.708 -16.619,-13.708 -8.989,0 -13.219,7.602 -16.619,13.709 -3.135,5.634 -5.235,9.086 -8.754,9.086 -3.52,0 -5.62,-3.452 -8.756,-9.085 -3.398,-6.108 -7.630996,-13.71 -16.620996,-13.71 -8.988,0 -13.221,7.602 -16.619,13.71 -3.135,5.633 -5.234,9.085 -8.754,9.085 -3.52,0 -5.619,-3.453 -8.756,-9.087 -3.348,-6.019 -7.516,-13.471 -16.234,-13.688 0.363,-6.458 2.008,-17.413999 8.685,-23.216999 z m -16.136,38.317999 c 2.652,-4.456 4.576,-6.122 7.066,-6.122 3.52,0 5.619,3.452 8.754,9.085 3.398,6.108 7.631,13.71 16.619,13.71 8.988,0 13.219,-7.601 16.617,-13.708 3.137,-5.634 5.236,-9.087 8.756,-9.087 3.521,0 5.623,3.453 8.758,9.087 3.4,6.107 7.630996,13.708 16.619996,13.708 8.989,0 13.219,-7.602 16.619,-13.709 3.135,-5.634 5.235,-9.086 8.754,-9.086 3.52,0 5.62,3.452 8.755,9.085 3.4,6.108 7.631,13.71 16.622,13.71 8.988,0 13.219,-7.602 16.618,-13.709 3.135,-5.634 5.235,-9.086 8.753,-9.086 2.49,0 4.416,1.667 7.07,6.126 5.582,10.96 5.326,23.571 4.147,32.176 -2.726,-3.117 -6.24,-5.451 -11.217,-5.451 -8.988,0 -13.219,7.602 -16.618,13.709 -3.135,5.634 -5.235,9.086 -8.753,9.086 -3.521,0 -5.622,-3.453 -8.758,-9.087 -3.399,-6.107 -7.63,-13.708 -16.619,-13.708 -8.989,0 -13.219,7.602 -16.619,13.709 -3.135,5.634 -5.235,9.086 -8.754,9.086 -3.52,0 -5.62,-3.452 -8.756,-9.085 -3.398,-6.108 -7.630996,-13.71 -16.620996,-13.71 -8.988,0 -13.221,7.602 -16.619,13.71 -3.135,5.633 -5.234,9.085 -8.754,9.085 -3.52,0 -5.619,-3.453 -8.756,-9.087 -3.398,-6.107 -7.629,-13.708 -16.617,-13.708 -4.977,0 -8.492,2.335 -11.219,5.452 -1.178,-8.607 -1.432,-21.224 4.152,-32.181 z"
       id="path3340"
       sodipodi:nodetypes="ccccccccccccscccscscsccccccccccscccccscscscscscscsccccccscscscscscscsccccccccscccccccscscscscscscsscccccscccscccccscscscccscscscscscccscscscscscccscscscscsccccscscscscscscsccscscscscscscscc" />
    <g
       id="g3342"
       transform="matrix(0,1,-1,0,456.80854,-34.666404)" />
    <g
       id="g3344"
       transform="matrix(0,1,-1,0,456.80854,-34.666404)" />
    <g
       id="g3346"
       transform="matrix(0,1,-1,0,456.80854,-34.666404)" />
    <g
       id="g3348"
       transform="matrix(0,1,-1,0,456.80854,-34.666404)" />
    <g
       id="g3350"
       transform="matrix(0,1,-1,0,456.80854,-34.666404)" />
    <g
       id="g3352"
       transform="matrix(0,1,-1,0,456.80854,-34.666404)" />
    <g
       id="g3354"
       transform="matrix(0,1,-1,0,456.80854,-34.666404)" />
    <g
       id="g3356"
       transform="matrix(0,1,-1,0,456.80854,-34.666404)" />
    <g
       id="g3358"
       transform="matrix(0,1,-1,0,456.80854,-34.666404)" />
    <g
       id="g3360"
       transform="matrix(0,1,-1,0,456.80854,-34.666404)" />
    <g
       id="g3362"
       transform="matrix(0,1,-1,0,456.80854,-34.666404)" />
    <g
       id="g3364"
       transform="matrix(0,1,-1,0,456.80854,-34.666404)" />
    <g
       id="g3366"
       transform="matrix(0,1,-1,0,456.80854,-34.666404)" />
    <g
       id="g3368"
       transform="matrix(0,1,-1,0,456.80854,-34.666404)" />
    <g
       id="g3370"
       transform="matrix(0,1,-1,0,456.80854,-34.666404)" />
  </g>
</svg>
