<svg xmlns="http://www.w3.org/2000/svg" viewBox="0 0 612.002 612.002" width="512" height="512"
     enable-background="new 0 0 612.002 612.002">
    <path d="m512.38 584.19h-412.75c-35.959 0-68.16-18.593-86.14-49.732s-17.981-68.32 0-99.47l206.38-357.45c17.978-31.14 50.18-49.732 86.14-49.732s68.16 18.593 86.14 49.732l206.38 357.45c17.981 31.14 17.981 68.32 0 99.47s-50.18 49.732-86.14 49.732m-206.37-527.8c-25.625 0-48.571 13.25-61.38 35.439l-206.38 357.45c-12.812 22.19-12.81 48.689 0 70.88s35.759 35.439 61.38 35.439h412.75c25.625 0 48.571-13.25 61.38-35.439 12.812-22.19 12.812-48.689 0-70.88l-206.38-357.45c-12.81-22.19-35.756-35.439-61.38-35.439m249.49 394.51l-198.99-344.67c-10.54-18.258-29.418-29.16-50.5-29.16-21.08 0-39.961 10.9-50.5 29.16l-198.99 344.67c-10.543 18.258-10.54 40.06 0 58.31 10.54 18.255 29.418 29.15 50.5 29.15h397.99c21.08 0 39.961-10.9 50.5-29.15 10.54-18.256 10.537-40.06-.003-58.31m-285.53-237.11c0-19.87 16.17-36.04 36.04-36.04s36.04 16.17 36.04 36.04v116.95c0 19.871-16.17 36.04-36.04 36.04s-36.04-16.17-36.04-36.04v-116.95m36.04 259.28c-20.362 0-36.928-16.566-36.928-36.928s16.566-36.928 36.928-36.928 36.928 16.566 36.928 36.928-16.566 36.928-36.928 36.928"
          />
</svg>